<svg viewBox="0 0 680 342" xmlns="http://www.w3.org/2000/svg" role="img"><title>Corne NUM layer</title><desc>NUM layer key arrangement for a 42-key Corne split keyboard.</desc><style>text{font-family:-apple-system,BlinkMacSystemFont,'Segoe UI',Roboto,Helvetica,Arial,sans-serif}.bg{fill:#FFFFFF;stroke:#E5E4DF;stroke-width:1}.t{fill:#2C2C2A}.ts{fill:#5F5E5A}.empty{fill:#EFEEE9;stroke:#C9C7BE;stroke-width:1;stroke-dasharray:3 3}.c-purple rect{fill:#EEEDFE;stroke:#534AB7;stroke-width:1.4}.c-purple .t{fill:#26215C}.c-teal rect{fill:#E1F5EE;stroke:#0F6E56;stroke-width:1.4}.c-teal .t{fill:#04342C}.c-coral rect{fill:#FAECE7;stroke:#993C1D;stroke-width:1.4}.c-coral .t{fill:#4A1B0C}.c-pink rect{fill:#FBEAF0;stroke:#993556;stroke-width:1.4}.c-pink .t{fill:#4B1528}.c-gray rect{fill:#F1EFE8;stroke:#5F5E5A;stroke-width:1.4}.c-gray .t{fill:#2C2C2A}.c-blue rect{fill:#E6F1FB;stroke:#185FA5;stroke-width:1.4}.c-blue .t{fill:#042C53}.c-green rect{fill:#EAF3DE;stroke:#3B6D11;stroke-width:1.4}.c-green .t{fill:#173404}.c-amber rect{fill:#FAEEDA;stroke:#854F0B;stroke-width:1.4}.c-amber .t{fill:#412402}.c-red rect{fill:#FCEBEB;stroke:#A32D2D;stroke-width:1.4}.c-red .t{fill:#501313}@media(prefers-color-scheme:dark){.bg{fill:#0D1117;stroke:#2A2D32}.t{fill:#D3D1C7}.ts{fill:#B4B2A9}.empty{fill:#242422;stroke:#4A4A47}.c-purple rect{fill:#3C3489;stroke:#AFA9EC}.c-purple .t{fill:#CECBF6}.c-teal rect{fill:#085041;stroke:#5DCAA5}.c-teal .t{fill:#9FE1CB}.c-coral rect{fill:#712B13;stroke:#F0997B}.c-coral .t{fill:#F5C4B3}.c-pink rect{fill:#72243E;stroke:#ED93B1}.c-pink .t{fill:#F4C0D1}.c-gray rect{fill:#444441;stroke:#B4B2A9}.c-gray .t{fill:#D3D1C7}.c-blue rect{fill:#0C447C;stroke:#85B7EB}.c-blue .t{fill:#B5D4F4}.c-green rect{fill:#27500A;stroke:#97C459}.c-green .t{fill:#C0DD97}.c-amber rect{fill:#633806;stroke:#EF9F27}.c-amber .t{fill:#FAC775}.c-red rect{fill:#791F1F;stroke:#F09595}.c-red .t{fill:#F7C1C1}}</style><rect class="bg" x="0" y="0" width="680" height="342" rx="16"/><g class="c-gray"><rect x="20" y="64" width="52" height="46" rx="6"/><text class="t" x="46" y="92" text-anchor="middle" font-size="13">`</text></g><rect class="empty" x="360" y="66" width="52" height="46" rx="6"/><g class="c-blue"><rect x="20" y="118" width="52" height="46" rx="6"/><text class="t" x="46" y="137" text-anchor="middle" font-size="13">1</text><text class="t" x="46" y="152" text-anchor="middle" font-size="12">Ctrl</text></g><g class="c-gray"><rect x="360" y="120" width="52" height="46" rx="6"/><text class="t" x="386" y="148" text-anchor="middle" font-size="13">6</text></g><rect class="empty" x="20" y="172" width="52" height="46" rx="6"/><rect class="empty" x="360" y="174" width="52" height="46" rx="6"/><rect class="empty" x="78" y="56" width="52" height="46" rx="6"/><g class="c-gray"><rect x="418" y="60" width="52" height="46" rx="6"/><text class="t" x="444" y="88" text-anchor="middle" font-size="13">=</text></g><g class="c-blue"><rect x="78" y="110" width="52" height="46" rx="6"/><text class="t" x="104" y="129" text-anchor="middle" font-size="13">2</text><text class="t" x="104" y="144" text-anchor="middle" font-size="12">Alt</text></g><g class="c-blue"><rect x="418" y="114" width="52" height="46" rx="6"/><text class="t" x="444" y="133" text-anchor="middle" font-size="13">7</text><text class="t" x="444" y="148" text-anchor="middle" font-size="12">Shift</text></g><rect class="empty" x="78" y="164" width="52" height="46" rx="6"/><g class="c-gray"><rect x="418" y="168" width="52" height="46" rx="6"/><text class="t" x="444" y="196" text-anchor="middle" font-size="13">−</text></g><g class="c-gray"><rect x="136" y="50" width="52" height="46" rx="6"/><text class="t" x="162" y="78" text-anchor="middle" font-size="13">{</text></g><g class="c-gray"><rect x="476" y="50" width="52" height="46" rx="6"/><text class="t" x="502" y="78" text-anchor="middle" font-size="13">+</text></g><g class="c-blue"><rect x="136" y="104" width="52" height="46" rx="6"/><text class="t" x="162" y="123" text-anchor="middle" font-size="13">3</text><text class="t" x="162" y="138" text-anchor="middle" font-size="12">Cmd</text></g><g class="c-blue"><rect x="476" y="104" width="52" height="46" rx="6"/><text class="t" x="502" y="123" text-anchor="middle" font-size="13">8</text><text class="t" x="502" y="138" text-anchor="middle" font-size="12">Cmd</text></g><g class="c-gray"><rect x="136" y="158" width="52" height="46" rx="6"/><text class="t" x="162" y="186" text-anchor="middle" font-size="13">[</text></g><g class="c-gray"><rect x="476" y="158" width="52" height="46" rx="6"/><text class="t" x="502" y="186" text-anchor="middle" font-size="13">_</text></g><g class="c-gray"><rect x="194" y="60" width="52" height="46" rx="6"/><text class="t" x="220" y="88" text-anchor="middle" font-size="13">}</text></g><g class="c-gray"><rect x="534" y="56" width="52" height="46" rx="6"/><text class="t" x="560" y="84" text-anchor="middle" font-size="13">:</text></g><g class="c-blue"><rect x="194" y="114" width="52" height="46" rx="6"/><text class="t" x="220" y="133" text-anchor="middle" font-size="13">4</text><text class="t" x="220" y="148" text-anchor="middle" font-size="12">Shift</text></g><g class="c-blue"><rect x="534" y="110" width="52" height="46" rx="6"/><text class="t" x="560" y="129" text-anchor="middle" font-size="13">9</text><text class="t" x="560" y="144" text-anchor="middle" font-size="12">Alt</text></g><g class="c-gray"><rect x="194" y="168" width="52" height="46" rx="6"/><text class="t" x="220" y="196" text-anchor="middle" font-size="13">]</text></g><g class="c-gray"><rect x="534" y="164" width="52" height="46" rx="6"/><text class="t" x="560" y="192" text-anchor="middle" font-size="13">.</text></g><g class="c-gray"><rect x="252" y="66" width="52" height="46" rx="6"/><text class="t" x="278" y="94" text-anchor="middle" font-size="13">|</text></g><g class="c-gray"><rect x="592" y="64" width="52" height="46" rx="6"/><text class="t" x="618" y="92" text-anchor="middle" font-size="13">;</text></g><g class="c-gray"><rect x="252" y="120" width="52" height="46" rx="6"/><text class="t" x="278" y="148" text-anchor="middle" font-size="13">5</text></g><g class="c-blue"><rect x="592" y="118" width="52" height="46" rx="6"/><text class="t" x="618" y="137" text-anchor="middle" font-size="13">0</text><text class="t" x="618" y="152" text-anchor="middle" font-size="12">Ctrl</text></g><g class="c-gray"><rect x="252" y="174" width="52" height="46" rx="6"/><text class="t" x="278" y="202" text-anchor="middle" font-size="13">\</text></g><g class="c-gray"><rect x="592" y="172" width="52" height="46" rx="6"/><text class="t" x="618" y="200" text-anchor="middle" font-size="13">/</text></g><rect class="empty" x="170" y="226" width="52" height="46" rx="6"/><rect class="empty" x="228" y="236" width="52" height="46" rx="6"/><rect class="empty" x="286" y="246" width="52" height="46" rx="6"/><rect class="empty" x="344" y="246" width="52" height="46" rx="6"/><g class="c-coral"><rect x="402" y="236" width="52" height="46" rx="6"/><text class="t" x="428" y="255" text-anchor="middle" font-size="13">NUM</text><text class="t" x="428" y="270" text-anchor="middle" font-size="12">held</text></g><rect class="empty" x="460" y="226" width="52" height="46" rx="6"/><g class="c-coral"><rect x="20" y="312" width="14" height="14" rx="3"/></g><text class="ts" x="40" y="323" font-size="12">held → this layer</text><g class="c-blue"><rect x="168" y="312" width="14" height="14" rx="3"/></g><text class="ts" x="188" y="323" font-size="12">home-row mod (tap / hold)</text></svg>
